<svg width="809" height="789" viewBox="0 0 809 789" fill="none" xmlns="http://www.w3.org/2000/svg">
<path d="M645.308 610.732C674.083 573.029 684.635 528.078 690.336 481.833C693.969 454.745 694.998 427.371 693.409 400.087C693.409 399.468 692.423 399.584 692.462 400.203C693.399 424.554 692.112 448.941 688.616 473.059C685.601 496.404 682.065 519.942 675.552 542.63C662.739 587.387 634.969 623.796 600.377 654.292C581.051 671.472 560.025 686.758 539.193 702.122C538.652 702.508 539.193 703.339 539.811 702.953C577.882 676.149 616.88 648.05 645.308 610.732Z" fill="#C7C7C7"/>
<path d="M683.456 405.42C683.456 405.42 672.285 431.316 673.58 432.92C674.875 434.524 709.274 438.177 710.144 436.785C711.013 435.394 707.709 407.971 707.709 407.971L683.456 405.42Z" fill="#DBDBDB"/>
<path d="M717.43 193.016C659.126 186.851 606.928 228.536 602.657 300.02C598.386 371.504 661.947 408.995 691.283 412.107C712.541 414.349 798.461 405.884 807.969 316.292C816.066 239.686 775.58 199.103 717.43 193.016Z" fill="#455A64"/>
<path d="M717.43 193.016C659.126 186.851 606.928 228.536 602.657 300.02C598.386 371.504 661.947 408.995 691.283 412.107C712.541 414.349 798.461 405.884 807.969 316.292C816.066 239.686 775.58 199.103 717.43 193.016Z" fill="#DBDBDB"/>
<path opacity="0.2" d="M733.78 342.072C697.929 342.072 668.866 313.009 668.866 277.159C668.866 241.308 697.929 212.245 733.78 212.245C769.631 212.245 798.693 241.308 798.693 277.159C798.693 313.009 769.631 342.072 733.78 342.072Z" fill="white"/>
<path opacity="0.4" d="M710.358 272.873C706.583 251.766 720.634 231.595 741.741 227.82C762.848 224.045 783.019 238.096 786.794 259.203C790.569 280.31 776.519 300.481 755.411 304.256C734.304 308.031 714.133 293.98 710.358 272.873Z" fill="white"/>
<path d="M163.76 696.421C134.984 658.717 124.433 613.747 118.732 567.502C115.101 540.433 114.072 513.079 115.659 485.814C115.659 485.195 116.645 485.311 116.606 485.91C115.641 510.234 116.896 534.594 120.355 558.69C123.37 582.054 126.906 605.573 133.419 628.261C146.232 673.018 174.002 709.427 208.594 739.941C228.016 757.102 248.946 772.408 269.778 787.752C269.87 787.84 269.927 787.959 269.938 788.086C269.949 788.213 269.913 788.339 269.837 788.441C269.761 788.544 269.65 788.614 269.525 788.641C269.4 788.667 269.271 788.646 269.16 788.583C231.186 761.779 192.187 733.699 163.76 696.421Z" fill="#C7C7C7"/>
<path d="M125.612 491.051C125.612 491.051 136.782 516.966 135.487 518.57C134.193 520.174 99.7935 523.807 98.9238 522.435C98.0542 521.063 101.359 493.621 101.359 493.621L125.612 491.051Z" fill="#DBDBDB"/>
<path d="M91.6377 278.666C149.942 272.482 202.14 314.186 206.411 385.67C210.682 457.154 147.121 494.646 117.785 497.757C96.527 499.999 10.6068 491.553 1.0987 401.942C-7.09522 325.356 33.4879 284.811 91.6377 278.666Z" fill="#455A64"/>
<path d="M91.6377 278.666C149.942 272.482 202.14 314.186 206.411 385.67C210.682 457.154 147.121 494.646 117.785 497.757C96.527 499.999 10.6068 491.553 1.0987 401.942C-7.09522 325.356 33.4879 284.811 91.6377 278.666Z" fill="#DBDBDB"/>
<path opacity="0.2" d="M11.4621 374.213C5.13195 338.926 28.6066 305.188 63.8941 298.858C99.1817 292.528 132.919 316.002 139.25 351.29C145.58 386.577 122.105 420.315 86.8177 426.645C51.5301 432.976 17.7923 409.501 11.4621 374.213Z" fill="white"/>
<path opacity="0.4" d="M37.1786 382.694C43.3187 387.305 50.6882 389.991 58.3551 390.414C66.0221 390.836 73.6422 388.976 80.2519 385.068C86.8616 381.16 92.164 375.379 95.4886 368.458C98.8132 361.536 100.011 353.784 98.9297 346.182C97.8487 338.58 94.5377 331.469 89.4155 325.749C84.2932 320.028 77.5897 315.955 70.1526 314.045C62.7155 312.134 54.8789 312.472 47.6336 315.015C40.3884 317.558 34.0599 322.192 29.4484 328.332C23.2692 336.567 20.6124 346.919 22.0619 357.113C23.5113 367.306 28.9485 376.507 37.1786 382.694Z" fill="white"/>
<path d="M586.482 511.767C601.067 488.896 612.257 464.029 619.703 437.945C627.201 410.657 628.689 382.558 628.012 354.382C627.123 318.688 624.727 282.975 623.142 247.281C623.142 246.721 622.253 246.837 622.273 247.397C623.316 278.202 624.399 309.006 625.172 339.83C625.906 368.509 625.925 397.42 619.683 425.577C607.334 481.33 574.52 530.223 536.372 571.772C512.64 597.61 486.474 621.187 460.365 644.59C460.095 644.841 460.365 645.325 460.713 645.073C507.268 605.63 553.861 563.965 586.482 511.767Z" fill="#C7C7C7"/>
<path d="M607.624 233.309C607.624 233.309 599.005 260.171 600.454 261.64C601.904 263.109 636.477 263.418 637.172 261.969C637.868 260.519 631.974 233.522 631.974 233.522L607.624 233.309Z" fill="#EBEBEB"/>
<path d="M620.977 18.6248C562.363 18.0837 514.417 64.619 517.045 136.181C519.674 207.742 586.616 238.933 616.049 239.204C637.307 239.397 722.145 222.681 722.976 132.586C723.672 55.5941 679.417 19.1466 620.977 18.6248Z" fill="#EBEBEB"/>
<path opacity="0.2" d="M595.02 137.123C569.986 111.461 570.495 70.3629 596.157 45.3287C621.82 20.2944 662.918 20.8037 687.952 46.4662C712.986 72.1288 712.477 113.227 686.815 138.261C661.152 163.295 620.054 162.786 595.02 137.123Z" fill="white"/>
<path opacity="0.4" d="M611.982 78.9017C610.237 57.5307 626.146 38.7908 647.517 37.0451C668.888 35.2993 687.628 51.2088 689.374 72.5798C691.119 93.9508 675.21 112.691 653.839 114.436C632.468 116.182 613.728 100.273 611.982 78.9017Z" fill="white"/>
<path d="M793.649 588.334C793.462 589.744 793.698 591.178 794.326 592.454C794.955 593.73 795.947 594.791 797.179 595.503C798.41 596.215 799.825 596.545 801.245 596.452C802.664 596.36 804.024 595.848 805.152 594.982C806.281 594.116 807.127 592.935 807.584 591.588C808.041 590.241 808.088 588.788 807.719 587.415C807.35 586.041 806.582 584.808 805.512 583.87C804.442 582.933 803.118 582.335 801.708 582.15C799.819 581.903 797.91 582.416 796.399 583.575C794.888 584.735 793.899 586.446 793.649 588.334Z" fill="#EBEBEB"/>
<path d="M417.966 164.008C417.779 165.419 418.015 166.852 418.643 168.128C419.271 169.404 420.264 170.465 421.496 171.177C422.727 171.889 424.142 172.219 425.562 172.126C426.981 172.034 428.341 171.522 429.469 170.656C430.598 169.79 431.444 168.609 431.901 167.262C432.358 165.915 432.405 164.463 432.036 163.089C431.667 161.715 430.899 160.482 429.829 159.544C428.759 158.607 427.435 158.009 426.025 157.824C424.136 157.577 422.227 158.09 420.716 159.249C419.205 160.409 418.216 162.12 417.966 164.008Z" fill="#EBEBEB"/>
<path d="M537.086 186.272C536.9 187.681 537.135 189.114 537.763 190.389C538.391 191.664 539.383 192.725 540.613 193.436C541.844 194.148 543.258 194.479 544.676 194.387C546.095 194.296 547.454 193.786 548.583 192.922C549.712 192.058 550.559 190.878 551.017 189.533C551.476 188.188 551.525 186.736 551.16 185.363C550.794 183.989 550.029 182.755 548.962 181.816C547.894 180.877 546.573 180.276 545.164 180.088C544.227 179.963 543.275 180.023 542.362 180.267C541.449 180.51 540.593 180.931 539.843 181.505C539.093 182.079 538.463 182.796 537.99 183.614C537.517 184.432 537.21 185.335 537.086 186.272Z" fill="#EBEBEB"/>
<path d="M102.055 473.697C101.961 474.402 102.079 475.12 102.393 475.758C102.708 476.396 103.204 476.927 103.821 477.283C104.437 477.639 105.145 477.804 105.855 477.757C106.565 477.71 107.245 477.453 107.81 477.019C108.374 476.585 108.796 475.994 109.024 475.319C109.251 474.645 109.274 473.918 109.088 473.232C108.902 472.545 108.516 471.928 107.98 471.461C107.443 470.993 106.78 470.695 106.074 470.605C105.607 470.542 105.132 470.573 104.677 470.695C104.222 470.817 103.795 471.027 103.421 471.315C103.048 471.602 102.735 471.96 102.5 472.369C102.266 472.778 102.114 473.229 102.055 473.697Z" fill="#EBEBEB"/>
<path d="M228.267 67.4403C228.174 68.1449 228.292 68.8613 228.606 69.4989C228.92 70.1365 229.416 70.6668 230.031 71.0227C230.646 71.3785 231.353 71.544 232.062 71.4982C232.772 71.4524 233.451 71.1974 234.016 70.7653C234.58 70.3333 235.004 69.7436 235.233 69.0709C235.462 68.3982 235.487 67.6726 235.304 66.9858C235.121 66.2991 234.739 65.6819 234.205 65.2125C233.672 64.743 233.011 64.4422 232.306 64.3482C231.838 64.2857 231.362 64.3162 230.905 64.4378C230.449 64.5594 230.021 64.7698 229.646 65.057C229.271 65.3442 228.956 65.7025 228.719 66.1114C228.483 66.5204 228.329 66.9719 228.267 67.4403Z" fill="#EBEBEB"/>
<path d="M187.588 259.9C187.493 260.382 187.497 260.879 187.6 261.359C187.704 261.839 187.905 262.293 188.191 262.692C188.477 263.092 188.842 263.429 189.263 263.682C189.684 263.935 190.153 264.099 190.64 264.163C191.127 264.228 191.622 264.193 192.094 264.059C192.567 263.925 193.007 263.695 193.388 263.384C193.768 263.074 194.081 262.688 194.307 262.252C194.532 261.816 194.666 261.338 194.7 260.847C194.763 259.936 194.476 259.034 193.898 258.327C193.32 257.619 192.494 257.158 191.588 257.037C190.683 256.917 189.765 257.146 189.022 257.677C188.279 258.209 187.766 259.004 187.588 259.9Z" fill="#EBEBEB"/>
<path d="M688.866 383.332C688.77 384.037 688.884 384.754 689.195 385.394C689.506 386.034 690 386.567 690.615 386.926C691.229 387.284 691.936 387.453 692.646 387.41C693.356 387.366 694.038 387.113 694.604 386.682C695.17 386.252 695.596 385.663 695.827 384.99C696.058 384.317 696.084 383.591 695.903 382.903C695.721 382.215 695.339 381.597 694.805 381.126C694.272 380.655 693.611 380.354 692.905 380.259C691.964 380.138 691.012 380.392 690.256 380.967C689.5 381.542 689.001 382.392 688.866 383.332Z" fill="#EBEBEB"/>
<path d="M366.115 603.273C366.021 603.978 366.139 604.695 366.453 605.334C366.768 605.972 367.264 606.503 367.881 606.859C368.497 607.215 369.205 607.379 369.915 607.333C370.625 607.286 371.305 607.029 371.87 606.595C372.434 606.161 372.856 605.57 373.084 604.895C373.311 604.221 373.334 603.494 373.148 602.807C372.962 602.12 372.576 601.504 372.04 601.036C371.503 600.569 370.84 600.271 370.134 600.18C369.192 600.06 368.24 600.317 367.486 600.897C366.733 601.476 366.24 602.33 366.115 603.273Z" fill="#EBEBEB"/>
<path d="M375.913 436.978C375.722 438.389 375.954 439.824 376.58 441.102C377.206 442.38 378.196 443.444 379.427 444.159C380.658 444.873 382.073 445.207 383.493 445.116C384.913 445.026 386.275 444.516 387.405 443.652C388.535 442.787 389.384 441.606 389.842 440.259C390.301 438.912 390.35 437.459 389.982 436.084C389.614 434.71 388.847 433.475 387.777 432.537C386.707 431.598 385.382 430.999 383.971 430.814C382.086 430.567 380.179 431.076 378.669 432.232C377.159 433.387 376.168 435.094 375.913 436.978Z" fill="#EBEBEB"/>
<path d="M362.54 41.8726C362.354 43.2818 362.59 44.7146 363.218 45.9899C363.846 47.2651 364.837 48.3257 366.068 49.0374C367.298 49.7491 368.712 50.08 370.131 49.9884C371.549 49.8968 372.909 49.3868 374.037 48.5227C375.166 47.6586 376.013 46.4793 376.472 45.1339C376.931 43.7885 376.98 42.3373 376.614 40.9637C376.248 39.5902 375.483 38.3559 374.416 37.417C373.349 36.478 372.027 35.8765 370.618 35.6885C368.728 35.4414 366.816 35.9534 365.302 37.1124C363.788 38.2714 362.795 39.983 362.54 41.8726Z" fill="#EBEBEB"/>
<path d="M178.003 401.188L167.838 397.787C167.838 397.787 174.776 394.211 174.756 383.08C174.737 371.949 165.248 367.62 169.345 357.513L180.689 360.547C180.689 360.547 176.225 369.127 180.168 377.592C183.163 384.008 185.869 391.603 178.003 401.188Z" fill="#EBEBEB"/>
<path d="M393.345 684.265L403.374 680.497C403.374 680.497 400.244 687.647 407.239 696.267C414.235 704.886 424.4 702.315 427.55 712.712L416.844 717.505C416.844 717.505 414.912 708.036 406.505 703.977C400.166 700.866 393.267 696.672 393.345 684.265Z" fill="#EBEBEB"/>
<path d="M225.176 183.643L235.206 179.778C235.206 179.778 232.075 186.928 239.071 195.567C246.067 204.205 256.212 201.596 259.382 211.993L248.676 216.786C248.676 216.786 246.743 207.317 238.337 203.258C231.998 200.205 225.099 196.031 225.176 183.643Z" fill="#EBEBEB"/>
<path d="M703.187 660.824L713.217 657.113C713.217 657.113 710.087 664.264 717.082 672.883C724.078 681.502 734.243 678.932 737.413 689.329L726.706 694.121C726.706 694.121 724.774 684.652 716.348 680.594C710.009 677.405 703.11 673.231 703.187 660.824Z" fill="#EBEBEB"/>
<path d="M393.866 130.962L392.417 120.353C392.417 120.353 398.698 124.971 408.65 120.043C418.603 115.115 418.313 104.583 429.193 103.868L431.493 115.463C431.493 115.463 421.83 115.27 416.032 122.556C411.549 127.986 405.964 133.784 393.866 130.962Z" fill="#EBEBEB"/>
<path d="M204.671 479.32L203.222 468.691C203.222 468.691 209.502 473.33 219.474 468.402C229.446 463.474 229.137 452.941 239.998 452.226L242.201 463.628C242.201 463.628 232.538 463.435 226.74 470.721C222.354 476.248 216.769 482.045 204.671 479.32Z" fill="#EBEBEB"/>
<path d="M2.56846 549.085L1.11906 538.456C1.11906 538.456 7.39979 543.094 17.3716 538.146C27.3435 533.199 27.0343 522.686 37.8951 521.971L40.1948 533.431C40.1948 533.431 30.5322 533.238 24.7346 540.523C20.2511 546.089 14.6661 551.887 2.56846 549.085Z" fill="#EBEBEB"/>
<path d="M644.302 178.02L642.37 188.533C642.37 188.533 637.906 182.136 626.909 183.605C615.913 185.074 612.783 195.084 602.27 192.34L603.796 180.745C603.796 180.745 612.879 184.03 620.745 179.005C626.6 175.16 633.77 171.469 644.302 178.02Z" fill="#EBEBEB"/>
<path d="M745.2 478.625L728.077 473.774C728.077 473.774 719.922 495.167 736.928 501.216C736.928 501.216 731.131 489.814 745.2 478.625Z" fill="#EBEBEB"/>
<path d="M742.379 523.769L757.086 514.106C757.086 514.106 754.922 500.153 736.891 501.1C736.93 501.216 750.593 511.227 742.379 523.769Z" fill="#EBEBEB"/>
<path d="M289.606 309.876L300.912 303.75C300.912 303.75 310.053 317.529 298.979 324.486C299.056 324.486 301.318 315.538 289.606 309.876Z" fill="#EBEBEB"/>
<path d="M298.747 341.28L286.882 336.873C286.882 336.873 286.186 326.67 299.057 324.486C299.057 324.486 290.979 333.723 298.747 341.28Z" fill="#EBEBEB"/>
<path d="M94.8462 563.791C95.0285 562.386 94.7904 560.958 94.1619 559.688C93.5334 558.418 92.5428 557.363 91.315 556.656C90.0873 555.949 88.6774 555.621 87.2636 555.714C85.8498 555.808 84.4953 556.318 83.3712 557.181C82.2471 558.043 81.4038 559.219 80.9478 560.561C80.4918 561.903 80.4435 563.349 80.8091 564.718C81.1746 566.087 81.9375 567.317 83.0016 568.253C84.0656 569.188 85.383 569.788 86.7875 569.975C88.6759 570.222 90.5851 569.709 92.096 568.55C93.6069 567.391 94.596 565.679 94.8462 563.791Z" fill="#EBEBEB"/>
<path d="M48.9485 357.204C49.1353 355.794 48.8996 354.36 48.2713 353.084C47.643 351.808 46.6502 350.747 45.4187 350.035C44.1871 349.323 42.7722 348.993 41.3528 349.086C39.9334 349.179 38.5735 349.69 37.4451 350.556C36.3167 351.422 35.4705 352.603 35.0136 353.95C34.5568 355.297 34.5098 356.75 34.8786 358.123C35.2474 359.497 36.0154 360.731 37.0854 361.668C38.1555 362.605 39.4794 363.204 40.8898 363.388C42.7782 363.635 44.6874 363.122 46.1983 361.963C47.7092 360.803 48.6983 359.092 48.9485 357.204Z" fill="#EBEBEB"/>
<path d="M69.6655 782.438C69.8556 781.028 69.6233 779.594 68.9981 778.317C68.373 777.04 67.383 775.976 66.1534 775.262C64.9238 774.547 63.5099 774.213 62.0905 774.302C60.6712 774.391 59.3101 774.899 58.1796 775.762C57.049 776.625 56.1998 777.804 55.7393 779.149C55.2788 780.495 55.2277 781.947 55.5925 783.321C55.9573 784.696 56.7217 785.931 57.7888 786.871C58.856 787.812 60.1779 788.414 61.5875 788.603C62.5234 788.733 63.4758 788.677 64.3897 788.437C65.3037 788.197 66.161 787.778 66.9121 787.205C67.6633 786.632 68.2933 785.915 68.7659 785.097C69.2385 784.279 69.5443 783.375 69.6655 782.438Z" fill="#EBEBEB"/>
<path d="M90.2266 419.218L91.6953 429.828C91.6953 429.828 85.4146 425.209 75.4427 430.137C65.4709 435.065 65.7801 445.597 54.9193 446.312L52.6196 434.717C52.6196 434.717 62.2822 434.91 68.0798 427.625C72.5439 422.194 78.1483 416.397 90.2266 419.218Z" fill="#EBEBEB"/>
<path d="M580.916 99.8487L598.019 104.699C598.019 104.699 606.174 83.3062 589.226 77.354C589.226 77.354 595.004 88.6593 580.916 99.8487Z" fill="#EBEBEB"/>
<path d="M583.718 54.6855L569.012 64.2516C569.012 64.2516 571.176 78.2238 589.226 77.2768C589.226 77.3541 575.524 67.247 583.718 54.6855Z" fill="#EBEBEB"/>
<path d="M40.6196 267.805L29.3337 273.95C29.3337 273.95 20.1928 260.152 31.2662 253.195C31.1889 253.214 28.9278 262.162 40.6196 267.805Z" fill="#EBEBEB"/>
<path d="M31.5566 236.401L43.4416 240.827C43.4416 240.827 44.1374 251.011 31.2667 253.195C31.1894 253.214 39.2867 243.977 31.5566 236.401Z" fill="#EBEBEB"/>
</svg>
